<svg width="126" height="30" viewBox="0 0 126 30" fill="none" xmlns="http://www.w3.org/2000/svg">
<path d="M79.6239 17.7138C78.8347 17.7138 78.2657 17.9874 77.6888 18.2661V24.5736C78.2414 24.6293 78.5582 24.6293 79.0824 24.6293C80.9768 24.6293 81.2365 23.7121 81.2365 22.4315V19.419C81.2365 18.4733 80.9397 17.7138 79.6239 17.7138ZM67.0426 17.3695C65.7282 17.3695 65.4283 18.1324 65.4283 19.0771V19.608H68.6552V19.0771C68.6552 18.1324 68.3553 17.3695 67.0426 17.3695ZM42.6701 23.9347C42.6701 24.6821 43.0037 25.0703 43.7399 25.0703C44.5296 25.0703 44.9972 24.7981 45.5737 24.5184V23.0222H43.847C43.0294 23.0222 42.6701 23.1831 42.6701 23.9347ZM91.8624 17.7138C90.5458 17.7138 90.0896 18.4733 90.0896 19.419V22.8702C90.0896 23.8183 90.5458 24.5801 91.8624 24.5801C93.1755 24.5801 93.6351 23.8183 93.6351 22.8702V19.419C93.6347 18.4733 93.175 17.7138 91.8624 17.7138ZM36.218 27.8045H32.3478V17.9013H30.414V14.4889H32.3482V12.4395C32.3482 9.65521 33.4397 8 36.5418 8H39.1247V11.4133H37.5103C36.3025 11.4133 36.2229 11.8904 36.2229 12.7804L36.218 14.4885H39.1423L38.8004 17.9008H36.218V27.8045ZM49.4448 27.8302H46.2192L46.0798 26.9678C44.607 27.8302 43.2926 27.9701 42.4255 27.9701C40.0599 27.9701 38.8008 26.2994 38.8008 23.989C38.8008 21.2632 40.2701 20.2904 42.8984 20.2904H45.5737V19.701C45.5737 18.3096 45.4228 17.9013 43.3988 17.9013H40.0896L40.413 14.4889H44.0301C48.471 14.4889 49.4448 15.972 49.4448 19.7286V27.8302ZM60.4135 18.1515C58.4063 17.7877 57.8298 17.7077 56.864 17.7077C55.1293 17.7077 54.6051 18.1123 54.6051 19.6697V22.6158C54.6051 24.1732 55.1293 24.5797 56.864 24.5797C57.8298 24.5797 58.4063 24.4983 60.4135 24.133V27.4617C58.6554 27.8784 57.51 27.9878 56.542 27.9878C52.3868 27.9878 50.7353 25.6778 50.7353 22.3408V19.9503C50.7353 16.6105 52.3868 14.2962 56.542 14.2962C57.51 14.2962 58.6554 14.4062 60.4135 14.8248V18.1515ZM72.525 22.3408H65.4278V22.6158C65.4278 24.1732 65.9525 24.5797 67.6868 24.5797C69.2458 24.5797 70.1975 24.4983 72.2011 24.133V27.4617C70.2687 27.8784 69.2618 27.9878 67.366 27.9878C63.2104 27.9878 61.558 25.6778 61.558 22.3408V19.6075C61.558 16.6876 62.784 14.2962 67.0422 14.2962C71.3004 14.2962 72.525 16.66 72.525 19.6075V22.3408ZM85.1059 22.4039C85.1059 25.6292 84.2339 27.9818 78.9515 27.9818C77.0438 27.9818 75.9249 27.8045 73.8195 27.4621V9.02521L77.6884 8.34283V14.792C78.5245 14.4637 79.6067 14.2967 80.5915 14.2967C84.4608 14.2967 85.1054 16.1306 85.1054 19.0776V22.4039H85.1059ZM97.508 22.4741C97.508 25.2564 96.4214 27.9551 91.8752 27.9551C87.3268 27.9551 86.2198 25.2564 86.2198 22.4741V19.7876C86.2198 17.0038 87.3268 14.3047 91.8752 14.3047C96.4214 14.3047 97.508 17.0038 97.508 19.7876V22.4741ZM109.902 22.4741C109.902 25.2564 108.814 27.9551 104.268 27.9551C99.72 27.9551 98.6131 25.2564 98.6131 22.4741V19.7876C98.6131 17.0038 99.72 14.3047 104.268 14.3047C108.814 14.3047 109.902 17.0038 109.902 19.7876V22.4741ZM122.621 27.8045H118.427L114.88 21.5452V27.8045H111.01V9.02474L114.88 8.34236V20.4321L118.427 14.4889H122.621L118.749 20.9746L122.621 27.8045ZM104.255 17.7138C102.941 17.7138 102.485 18.4733 102.485 19.419V22.8702C102.485 23.8183 102.941 24.5801 104.255 24.5801C105.568 24.5801 106.032 23.8183 106.032 22.8702V19.419C106.032 18.4733 105.568 17.7138 104.255 17.7138ZM124.83 25.4688C125.481 25.4688 126 26.0305 126 26.7321C126 27.4444 125.481 28 124.825 28C124.172 28 123.642 27.4444 123.642 26.7321C123.642 26.0305 124.172 25.4688 124.825 25.4688H124.83ZM124.825 25.6652C124.3 25.6652 123.87 26.1427 123.87 26.7321C123.87 27.3321 124.3 27.8036 124.83 27.8036C125.36 27.8092 125.783 27.3321 125.783 26.7377C125.783 26.1432 125.36 25.6652 124.83 25.6652H124.825ZM124.602 27.4673H124.39V26.0576C124.501 26.0413 124.607 26.0249 124.767 26.0249C124.969 26.0249 125.1 26.0698 125.181 26.1311C125.26 26.1933 125.302 26.2882 125.302 26.4224C125.302 26.6086 125.186 26.7204 125.043 26.7657V26.7765C125.159 26.7994 125.238 26.9107 125.265 27.1179C125.296 27.3373 125.329 27.421 125.349 27.4668H125.127C125.095 27.421 125.063 27.2924 125.037 27.1067C125.006 26.9276 124.92 26.8602 124.75 26.8602H124.603V27.4673H124.602ZM124.602 26.6872H124.756C124.93 26.6872 125.079 26.6193 125.079 26.4449C125.079 26.3214 124.995 26.1984 124.756 26.1984C124.687 26.1984 124.638 26.204 124.602 26.2092V26.6872Z" fill="white"/>
<g clip-path="url(#clip0_2_212)">
<path fill-rule="evenodd" clip-rule="evenodd" d="M24.6204 29.9882C25.4146 29.9882 26.0585 29.2471 26.0585 28.3331V1.65506C26.0585 0.740786 25.4145 0 24.6204 0H1.43819C0.643718 0 0 0.740899 0 1.65506V28.333C0 29.2471 0.643718 29.9881 1.43819 29.9881H24.6204V29.9882ZM17.98 29.9882V18.3752H21.3672L21.8743 13.8493H17.9799V10.9598C17.9799 9.64944 18.296 8.75652 19.9289 8.75652L22.0114 8.75539V4.70753C21.6512 4.65247 20.4149 4.52921 18.9768 4.52921C15.9742 4.52921 13.9186 6.63831 13.9186 10.5117V13.8493H10.5227V18.3752H13.9186V29.9881H17.98V29.9882Z" fill="white"/>
</g>
<defs>
<clipPath id="clip0_2_212">
<rect width="26.069" height="30" fill="white"/>
</clipPath>
</defs>
</svg>
