<svg width="133" height="39" viewBox="0 0 133 39" fill="none" xmlns="http://www.w3.org/2000/svg">
<path d="M91.2658 21.4453C91.1255 21.6572 91.0361 21.8015 90.9395 21.9422C90.0317 23.2465 89.0108 24.4377 87.6217 25.2616C85.7586 26.365 83.7387 26.8199 81.635 26.3631C80.5558 26.1275 79.5495 25.5228 78.5323 25.0387C78.2971 24.9272 78.1695 24.9254 77.9617 25.0478C77.0885 25.563 76.2408 26.1421 75.3165 26.5422C73.6776 27.2528 71.9513 27.6529 70.1666 27.1797C69.0473 26.8838 68.0811 26.2517 67.206 25.4917C66.5862 24.9528 66.5461 24.9528 65.9172 25.4716C64.7869 26.4033 63.4817 27.0044 62.1163 27.5013C60.4227 28.1169 58.6745 28.4951 56.8879 28.6723C54.7076 28.8878 52.686 28.517 51.2112 26.7212C50.028 25.2817 49.7127 23.6119 50.4364 21.8782C51.2294 19.9783 52.1445 18.1296 53.005 16.257C53.4534 15.2815 53.9055 14.3078 54.3412 13.3268C54.4214 13.1459 54.4524 12.9358 54.4615 12.7367C54.4779 12.3713 54.5527 11.9713 54.1316 11.7502C53.7014 11.5255 53.1927 11.5657 52.8755 11.9676C52.48 12.4682 52.1281 13.018 51.8346 13.5862C50.8575 15.4642 49.9132 17.3605 48.9598 19.2512C48.2452 20.6689 47.5433 22.0938 46.8232 23.5078C46.1396 24.8487 44.8562 25.3602 43.4635 24.8377C42.995 24.6605 42.7015 24.3153 42.6212 23.7873C42.51 23.0401 42.7543 22.3697 43.0187 21.701C43.5965 20.2359 44.1817 18.7744 44.7596 17.3093C45.0695 16.5238 45.3794 15.7382 45.6693 14.9454C45.8734 14.3918 45.9336 13.8036 45.6966 13.2592C45.5125 12.839 45.1515 12.5358 44.6448 12.5814C44.0906 12.6307 43.6549 12.9212 43.4452 13.4364C42.7106 15.2541 42.0051 17.0846 41.2832 18.9078C40.4191 21.089 39.5677 23.2776 38.6672 25.4442C38.3336 26.2444 37.8304 26.9751 36.9846 27.3168C36.5562 27.4903 36.0713 27.5981 35.61 27.6054C34.1699 27.6237 32.9284 27.1432 32.0789 25.9174C31.4026 24.9473 31.2385 23.864 31.5648 22.7168C31.8674 21.6554 32.1682 20.594 32.4854 19.5381C32.7862 18.5369 33.1034 17.5395 33.4152 16.542C33.705 15.6122 33.9766 14.675 34.292 13.7543C34.9118 11.9402 35.4113 10.0732 36.3921 8.40891C37.063 7.27078 38.1513 6.65513 39.3982 6.27332C40.7016 5.87507 41.8137 6.37563 42.9257 6.93099C43.3486 7.14108 43.7643 7.36578 44.1981 7.54846C44.8034 7.80239 45.3539 7.64163 45.8425 7.24338C46.2417 6.9182 46.6446 6.5912 47.0128 6.23131C47.9334 5.33067 49.9205 5.16443 50.8921 6.21121C51.1164 6.45235 51.3807 6.65513 51.6268 6.87436C52.1354 7.32376 52.3451 7.37126 52.9339 7.03694C54.3339 6.24592 55.7832 6.35553 57.207 6.86157C58.0328 7.15569 58.5286 7.86085 58.844 8.69389C59.3089 9.92153 59.1138 11.1053 58.6489 12.2599C57.7921 14.3827 56.8588 16.4726 56.0238 18.6027C55.528 19.8669 55.1105 21.1658 54.7532 22.4756C54.6074 23.0091 54.6074 23.643 54.7423 24.1782C54.9465 24.9894 55.6884 25.2561 56.4395 25.3511C57.5825 25.4954 58.7036 25.2835 59.7974 24.9802C60.7326 24.7226 61.6532 24.4029 62.5665 24.0723C63.0077 23.9133 63.4179 23.6686 63.839 23.453C64.1981 23.2703 64.2273 23.0036 64.0377 22.6674C63.6512 21.9824 63.2429 21.3064 62.902 20.5976C62.1801 19.0996 61.5876 17.5541 61.7462 15.8478C61.8847 14.3535 62.4225 13.0546 63.7989 12.269C65.8297 11.109 67.4795 11.4287 68.9725 13.1624C70.2632 14.6622 70.6898 16.4671 70.1356 18.4018C69.8257 19.4832 69.3809 20.5282 68.9579 21.575C68.8413 21.8655 68.9087 22.05 69.091 22.2199C69.946 23.02 70.9213 23.643 72.0041 24.0832C72.4125 24.2495 72.8445 24.3737 73.2766 24.4614C74.2063 24.6477 75.0704 24.4267 75.8452 23.8987C76.2134 23.6485 76.2225 23.4146 75.9655 23.0639C74.1826 20.6269 73.4771 17.914 74.0131 14.9344C74.2136 13.8182 74.7295 12.7641 75.9236 12.4426C76.6619 12.2435 77.4968 12.2526 78.2661 12.3494C79.5148 12.5083 80.6451 13.0071 81.4126 14.0849C82.3332 15.3783 82.5683 16.7923 82.1709 18.3378C81.8866 19.4485 81.305 20.3912 80.6652 21.3083C80.4118 21.6718 80.4026 22.0061 80.7472 22.2509C81.2795 22.6254 81.8191 23.0365 82.4207 23.2539C83.7259 23.7252 85.0822 23.6832 86.3966 23.2593C87.8368 22.7953 88.8485 21.8381 89.4246 20.4186C90.1137 18.7196 90.1228 16.9421 90.0863 15.1573C90.059 13.7634 90.0098 12.3677 89.9679 10.972C89.9533 10.4732 89.8731 10.444 89.3991 10.5408C88.1503 10.7929 86.8961 11.0176 85.6419 11.2478C85.2463 11.3191 84.8489 11.3684 84.4533 11.4396C83.5929 11.5949 82.8819 11.2405 82.8345 10.2321C82.7853 9.21455 82.6376 8.20247 82.5337 7.18857C82.5282 7.13194 82.5228 7.07348 82.5191 7.01685C82.4608 5.82209 82.7488 5.17356 84.1799 5.22471C85.6565 5.27952 87.1349 5.32702 88.6097 5.40557C89.3353 5.44394 89.5905 5.25942 89.6379 4.53782C89.6744 3.97698 89.6908 3.41614 89.7254 2.85712C89.7783 2.01677 89.9697 1.81765 90.821 1.85053C91.3296 1.87063 91.8419 1.96014 92.3396 2.07158C93.0414 2.22869 93.4078 2.72376 93.4571 3.42344C93.4972 3.99525 93.4807 4.57253 93.4716 5.14799C93.4643 5.55537 93.5901 5.77277 94.044 5.81844C95.3566 5.9518 96.6637 6.13448 97.9744 6.29159C98.5924 6.36467 98.9406 6.61677 99.0245 7.07714C99.1703 7.87729 98.9971 8.42535 98.3937 8.64457C97.5497 8.94965 96.6783 9.18349 95.8069 9.39906C95.1962 9.55069 94.5654 9.61462 93.9456 9.72972C93.53 9.80644 93.3039 10.0257 93.3076 10.4933C93.324 12.8098 93.2711 15.128 93.3386 17.4427C93.3732 18.6575 93.5555 19.8724 94.0714 21.0068C94.4889 21.9257 95.1998 22.2875 96.1915 22.1212C97.6444 21.8764 98.9771 21.3649 100.136 20.4442C100.78 19.9326 101.205 19.3079 101.236 18.4438C101.294 16.8617 101.372 15.2815 101.464 13.7031C101.491 13.2482 101.542 12.7751 101.693 12.3512C101.777 12.1156 102.087 11.8032 102.302 11.7977C103.489 11.7612 104.685 11.7502 105.866 11.8525C106.61 11.9165 107.12 12.6143 107.08 13.4017C107.027 14.5051 106.885 15.6049 106.779 16.7064C106.65 18.0656 106.53 19.4266 106.386 20.784C106.24 22.1577 107.335 22.8392 108.422 22.8519C109.332 22.8629 109.869 22.5231 110.256 21.5567C110.657 20.5574 110.894 19.4741 111.067 18.4054C111.311 16.8891 111.426 15.3509 111.607 13.8237C111.68 13.2007 112.068 12.7203 112.551 12.6161C113.109 12.4956 113.844 12.7239 114.026 13.2354C114.179 13.6629 114.144 14.1854 114.091 14.6549C113.895 16.394 113.61 18.1259 113.446 19.8687C113.346 20.9392 113.946 21.701 114.983 22.0171C115.501 22.1742 116.037 22.2984 116.573 22.3605C117.513 22.4683 118.179 21.7796 118.375 20.7091C118.541 19.8084 118.563 18.8804 118.645 17.9633C118.74 16.8745 118.753 15.7729 118.939 14.7006C119.212 13.113 120.235 11.6735 122.131 11.2113C123.268 10.9336 124.417 10.9007 125.553 11.0323C127.284 11.2314 129.098 12.4115 129.652 14.4064C130.074 15.9227 129.906 17.3879 129.412 18.8457C128.838 20.5355 127.791 21.8527 126.327 22.8556C126.192 22.9488 126.114 23.1242 126.01 23.2612C126.194 23.3434 126.38 23.4968 126.562 23.4932C128.313 23.4658 129.961 23.0657 131.472 22.1468C131.813 21.9404 132.185 21.7832 132.544 21.6115C132.874 21.4544 133.069 21.6408 132.978 21.9257C132.824 22.4044 132.64 22.9104 132.334 23.2977C131.04 24.9382 129.273 25.7238 127.232 25.8608C126.366 25.9192 125.487 25.8023 124.614 25.7548C123.956 25.7183 123.298 25.6598 122.639 25.616C122.306 25.594 122.113 25.7347 122.029 26.0818C121.504 28.2503 121.227 30.4571 120.955 32.6676C120.784 34.0597 120.525 35.4481 120.191 36.8109C120.011 37.5508 119.435 38.0604 118.638 38.1883C118.162 38.265 117.809 38.0586 117.648 37.6129C117.513 37.2365 117.387 36.8438 117.355 36.4492C117.198 34.5072 117.262 32.5708 117.519 30.638C117.65 29.6551 117.736 28.6668 117.849 27.6803C117.927 26.9952 118.031 26.312 118.095 25.6251C118.146 25.0697 118.02 24.94 117.489 24.8341C116.394 24.6149 115.296 24.3993 114.204 24.1581C113.463 23.9937 112.885 24.2568 112.383 24.7683C111.716 25.4497 110.978 26.0398 110.103 26.4234C109.045 26.8856 107.924 26.7888 106.838 26.6153C105.268 26.365 104.016 25.5374 103.124 24.2111C102.847 23.8001 102.647 23.3361 102.43 22.8867C102.308 22.6346 102.2 22.5377 101.905 22.6875C100.862 23.2191 99.8229 23.7654 98.7474 24.2221C97.5478 24.7299 96.2754 24.909 95.0011 24.5527C93.7597 24.2056 92.8062 23.4037 92.0151 22.4025C91.8018 22.1377 91.594 21.8673 91.2658 21.4453ZM127.04 16.4635C127.026 16.2917 127.026 16.1182 126.998 15.9483C126.84 14.9673 125.857 14.5288 125.064 15.1189C124.707 15.3856 124.38 15.7382 124.136 16.1127C123.319 17.3659 122.951 18.8018 122.583 20.2304C122.49 20.5885 122.426 20.9685 122.433 21.3357C122.448 22.0207 122.849 22.2235 123.423 21.8527C124.614 21.0836 125.494 20.0167 126.238 18.8311C126.69 18.1131 127.06 17.3531 127.04 16.4635ZM80.3571 17.1558C80.368 16.4744 80.2094 15.8442 79.7081 15.3527C79.431 15.0805 79.0828 14.9636 78.6854 15.0879C78.2023 15.2377 77.9416 15.5975 77.9051 16.1931C77.8341 17.3477 78.3299 18.3396 78.8385 19.317C79.101 19.8194 79.3508 19.8048 79.688 19.3389C80.162 18.6886 80.3461 17.9505 80.3571 17.1558ZM68.6116 16.9348C68.4858 16.5164 68.4019 16.0798 68.2233 15.6871C67.9936 15.1865 67.4011 14.9618 66.8779 15.0988C66.3237 15.245 66.105 15.5099 66.1615 16.1931C66.2125 16.7886 66.3492 17.3824 66.506 17.9597C66.6227 18.3853 66.8013 18.8018 67.011 19.1891C67.2954 19.7098 67.5925 19.7153 67.8714 19.211C68.2579 18.515 68.5569 17.7861 68.6116 16.9348Z" fill="white"/>
<g clip-path="url(#clip0_307_66)">
<path d="M27.8779 20.7806C27.8804 23.7213 25.8625 26.2547 23.1185 26.7528C22.773 26.815 22.4241 26.8518 22.0735 26.8483C21.9553 26.847 21.9089 26.8966 21.8714 27.0103C21.3236 28.661 20.2303 29.6449 18.5788 29.8931C17.4863 30.0571 16.4949 29.7496 15.6259 29.0328C15.5048 28.9329 15.4308 28.9312 15.3046 29.0259C14.2881 29.7889 13.1484 30.1268 11.9039 30.0478C9.47533 29.894 7.43194 27.946 7.04968 25.434C7.02339 25.2604 6.99544 25.0855 6.99291 24.9105C6.99039 24.765 6.93774 24.7088 6.8053 24.6816C6.07004 24.5312 5.40282 24.2134 4.81417 23.7298C3.73084 22.8396 3.08086 21.6774 2.92957 20.2397C2.75704 18.5942 3.24132 17.1714 4.34424 15.9858C4.43315 15.8907 4.43869 15.8245 4.37804 15.7126C3.95404 14.9357 3.75307 14.0943 3.7857 13.202C3.8671 10.9751 5.34365 9.13528 7.39745 8.67976C7.63507 8.62678 7.75963 8.52901 7.86406 8.29269C8.87708 6.0022 10.578 4.60916 12.9383 4.14971C14.5952 3.82699 16.1583 4.17252 17.6087 5.06784C17.7306 5.14332 17.8327 5.14939 17.9647 5.10907C20.2684 4.40761 22.3096 4.91792 24.0425 6.64724C25.0674 7.66967 25.6289 8.96364 25.7951 10.4398C25.8315 10.7626 25.8481 11.0883 25.8247 11.4128C25.8159 11.5355 25.8518 11.5868 25.9625 11.6298C27.0011 12.0332 27.7172 12.7855 28.0305 13.8983C28.4206 15.2825 28.0929 16.4963 27.1073 17.5055C27.0219 17.5931 27.04 17.6468 27.0884 17.7343C27.6092 18.676 27.879 19.6897 27.8779 20.7806ZM17.5987 20.3084C17.5996 21.5596 18.365 22.6656 19.4503 23.0413C19.9943 23.2298 20.5554 23.3193 21.1249 23.3456C21.5314 23.364 21.9373 23.3342 22.313 23.1377C22.6084 22.9829 22.7475 22.7273 22.7342 22.3866C22.7208 22.0438 22.5745 21.7874 22.262 21.6509C22.1534 21.6035 22.0431 21.5649 21.9278 21.5439C21.5831 21.4794 21.2367 21.425 20.8938 21.3537C20.3277 21.2354 20.0903 20.9209 20.0828 20.3202C20.0762 19.7888 20.2136 19.2876 20.3694 18.7918C20.6544 17.8842 21.0386 17.0192 21.4068 16.147C21.7623 15.3048 22.1349 14.4695 22.386 13.5825C22.5243 13.0954 22.5903 12.607 22.4646 12.1032C22.2732 11.3385 21.8366 10.826 21.0837 10.6786C20.3945 10.544 19.7084 10.5287 19.0851 10.9601C18.8778 11.1031 18.6785 11.0689 18.4986 10.9022C18.3612 10.7755 18.2304 10.6413 18.0958 10.5111C17.46 9.89509 16.6194 9.86485 15.9368 10.4274C15.6614 10.6545 15.4296 10.9361 15.1304 11.1334C14.8631 11.3096 14.5935 11.3595 14.2975 11.1938C14.0154 11.036 13.7235 10.897 13.4322 10.7585C13.1372 10.6187 12.8514 10.4459 12.5194 10.4165C11.469 10.3227 10.3699 10.9778 9.90654 11.9735C9.70094 12.4141 9.53309 12.8719 9.37392 13.3327C8.63897 15.4627 8.04035 17.6383 7.42079 19.8064C7.14334 20.7767 7.47079 21.7316 8.2537 22.2557C8.86452 22.6642 9.53334 22.7652 10.2257 22.5468C10.7867 22.3697 11.0939 21.8958 11.3086 21.3634C12.0221 19.5974 12.6647 17.8014 13.3448 16.0214C13.532 15.5315 13.7132 15.0396 13.9118 14.5551C14.1123 14.0659 14.6884 13.8992 15.0301 14.2237C15.2387 14.4217 15.2937 14.6854 15.2733 14.9673C15.2508 15.2685 15.1396 15.5464 15.0352 15.8231C14.5926 16.9973 14.1419 18.168 13.6974 19.3413C13.6076 19.5785 13.5102 19.8139 13.4705 20.0686C13.4025 20.5059 13.5674 20.8935 13.9082 21.0477C14.2559 21.2052 14.6169 21.2315 14.9774 21.0942C15.3968 20.9346 15.6475 20.59 15.8406 20.1918C16.504 18.8244 17.1624 17.4537 17.8254 16.0862C18.1317 15.4545 18.4433 14.8257 18.7562 14.1978C18.8724 13.965 19.0086 13.7444 19.2258 13.5997C19.4218 13.4695 19.6331 13.4598 19.8341 13.5783C20.0302 13.6936 20.0433 13.9041 20.0351 14.1119C20.0306 14.2237 20.0008 14.3329 19.9598 14.4368C19.8738 14.6529 19.7936 14.8722 19.6982 15.084C19.1468 16.3015 18.587 17.5144 18.0404 18.7345C17.8101 19.2495 17.5703 19.7669 17.5987 20.3084ZM25.3339 29.2813C25.3352 28.4737 24.6902 27.7984 23.9143 27.7962C23.1192 27.7932 22.4742 28.4609 22.4708 29.2892C22.4675 30.0989 23.1235 30.786 23.8993 30.787C24.686 30.7878 25.3327 30.1092 25.3339 29.2813ZM1.35038 16.905C2.09863 16.9068 2.72823 16.2504 2.72527 15.4722C2.72188 14.6927 2.10571 14.0463 1.36374 14.0441C0.603304 14.042 -0.000430788 14.6752 2.30641e-07 15.4745C0.000615972 16.2654 0.602565 16.9033 1.35038 16.905ZM18.1051 0.897527C17.3531 0.893133 16.7402 1.52409 16.736 2.30626C16.7314 3.0876 17.3422 3.72954 18.0904 3.73038C18.8357 3.73083 19.4343 3.10427 19.4357 2.32158C19.4375 1.53508 18.8454 0.901469 18.1051 0.897527ZM29.1771 9.75215C29.1738 9.10361 28.647 8.55207 28.0266 8.54768C27.3932 8.5429 26.8567 9.10458 26.861 9.76792C26.8655 10.4296 27.3769 10.96 28.0111 10.9609C28.6645 10.9623 29.1808 10.4265 29.1771 9.75215ZM5.45553 6.28918C5.45553 6.89823 5.90718 7.3761 6.48369 7.37701C7.06766 7.37785 7.52066 6.89739 7.51857 6.27955C7.51648 5.68025 7.06403 5.21149 6.48954 5.2133C5.89874 5.21453 5.45584 5.67534 5.45553 6.28918ZM16.256 31.4087C16.261 30.9014 15.8633 30.4837 15.3744 30.4818C14.8727 30.4802 14.4786 30.8883 14.4799 31.4079C14.4812 31.9204 14.8732 32.3264 15.3662 32.3264C15.8587 32.3268 16.2518 31.9217 16.256 31.4087ZM30.047 16.9955C29.5774 16.9919 29.17 17.4194 29.1738 17.9118C29.1778 18.3984 29.5649 18.7979 30.0336 18.7989C30.5249 18.7999 30.8935 18.4201 30.8946 17.9105C30.896 17.4062 30.5187 16.9989 30.047 16.9955ZM9.42066 6.84739e-06C9.00663 -0.00173792 8.68706 0.330155 8.68706 0.762534C8.68706 1.1922 9.00996 1.52629 9.42361 1.52409C9.82508 1.5219 10.1397 1.186 10.1397 0.759368C10.1397 0.328798 9.83006 0.00220396 9.42066 6.84739e-06ZM31.6855 12.9002C31.348 12.8962 31.0422 13.2132 31.0379 13.5723C31.0334 13.9437 31.3279 14.2528 31.6872 14.2537C32.044 14.2551 32.3238 13.9639 32.3264 13.5877C32.3297 13.2094 32.0456 12.905 31.6855 12.9002ZM6.12897 26.2766C6.13057 25.9171 5.8352 25.6075 5.48724 25.6041C5.13454 25.601 4.84459 25.9124 4.84712 26.2912C4.85001 26.6613 5.13621 26.9536 5.49266 26.951C5.8424 26.9488 6.1278 26.6467 6.12897 26.2766Z" fill="white"/>
</g>
<defs>
<clipPath id="clip0_307_66">
<rect width="30.4792" height="30.4792" fill="white"/>
</clipPath>
</defs>
</svg>
