<svg width="90" height="41" viewBox="0 0 90 41" fill="none" xmlns="http://www.w3.org/2000/svg">
<path d="M63.9498 16.9212C63.363 17.8253 63.1355 20.7202 63.3079 22.6193C63.3996 23.2612 63.4886 23.7949 63.6701 24.0663C63.7675 24.2654 63.9142 24.4364 64.0962 24.563C64.2781 24.6896 64.4894 24.7677 64.71 24.7898C64.9814 24.7898 65.1621 24.7439 70.4081 23.0714L72.7601 22.3029C73.347 22.1672 73.7551 21.6244 73.7551 20.9458C73.8009 20.2122 73.4387 19.6345 72.8509 19.408L71.1774 18.7295L64.9814 16.2876C64.6192 16.2417 64.213 16.4682 63.9416 16.9294L63.9498 16.9212ZM76.6142 34.2832C76.7059 34.0118 76.7059 33.8312 76.7499 28.3229V25.8351C76.7958 25.2483 76.3877 24.7045 75.755 24.4322C75.1223 24.1598 74.3979 24.3404 73.9916 24.8393L72.8161 26.1964L68.6099 31.3526C68.564 31.5332 68.5182 31.6689 68.564 31.8505C68.6113 32.1134 68.7197 32.3615 68.8804 32.5749C69.7845 33.6606 74.2172 35.2892 75.6202 35.0627C76.1181 34.971 76.4794 34.7005 76.6151 34.2942L76.6142 34.2832ZM85.5446 32.3759C86.8559 31.8331 89.7508 28.1697 89.9764 26.7228C90.0681 26.2248 89.8847 25.8186 89.5693 25.5472C89.3428 25.3665 89.1621 25.3207 83.9161 23.6032L81.565 22.8329C81.0221 22.6064 80.3894 22.8329 79.9364 23.3309C79.4843 23.8737 79.4385 24.5963 79.8007 25.1401L84.3232 32.2402C84.6396 32.5116 85.0917 32.5566 85.5446 32.3759ZM82.823 19.3273L89.2905 17.6538C89.6527 17.4274 89.8333 17.012 89.7884 16.5232V16.4774C89.6527 15.0304 87.0742 11.1864 85.8087 10.5537C85.3567 10.3272 84.9046 10.373 84.5433 10.5995C84.3168 10.7353 84.1362 10.9617 80.9249 15.3495L79.4779 17.3393C79.1157 17.7914 79.0708 18.47 79.4779 19.0577C79.8851 19.6455 80.5178 19.917 81.1065 19.7913L81.0606 19.8372C81.332 19.7015 81.8749 19.5658 82.824 19.3393L82.823 19.3273ZM76.8563 14.3876C76.7646 12.0355 76.042 1.45269 75.9521 0.955691C75.8897 0.733509 75.7685 0.532275 75.6013 0.373164C75.4341 0.214052 75.2271 0.10294 75.0021 0.0515445C73.4644 -0.310662 67.6296 1.31698 66.5449 2.40359C66.1827 2.7658 66.0469 3.21787 66.1827 3.62501C66.3184 3.98721 73.5552 15.3834 73.5552 15.3834C74.6409 17.1018 75.4991 16.8304 75.7715 16.7405C76.0878 16.6488 76.9471 16.3783 76.8572 14.3885" fill="white"/>
<path d="M2.77563 39.4026C3.54406 40.0811 4.94612 40.3067 6.71864 39.9454C8.34719 39.6291 9.34119 38.9056 10.337 35.83L15.1759 20.6339C15.4473 19.8196 15.4024 19.141 15.1301 18.5982C14.9036 18.191 14.4882 17.9196 13.9545 17.739C13.0504 17.5125 12.0105 17.5583 11.332 19.8645L8.79926 28.4566L3.64309 18.688C3.32674 18.0462 2.37766 17.5574 1.38182 17.9545C0.116395 18.4524 -0.291658 19.583 0.20626 21.03L6.49214 33.831C6.49214 33.831 6.67279 34.2831 6.67279 34.3739L6.71864 34.7361C6.71864 35.234 6.53799 35.6402 6.26657 35.9116C5.99514 36.1831 5.588 36.3188 5.091 36.3188H4.05115C3.05623 36.4545 2.4226 36.9973 2.33273 37.9015C2.19702 38.4883 2.37858 38.9872 2.7848 39.3943L2.77563 39.4026ZM27.5404 24.9702H20.8007C20.62 24.8345 20.5292 24.608 20.6649 23.9304C20.7566 23.5682 20.8456 23.2518 21.117 22.7998L21.3884 22.3926C21.8864 21.7507 22.564 21.3528 23.2866 21.2171C25.6386 20.6302 27.3213 21.8589 27.5826 23.8763C27.7183 24.8263 27.6285 24.962 27.5368 24.962L27.5404 24.9702ZM31.6558 23.8396C31.4293 21.6691 30.5701 19.9498 29.2139 18.865C27.7211 17.7344 25.6414 17.3722 23.1619 17.8252C20.0414 18.368 18.1873 20.5761 17.7792 24.2467C17.2364 28.6336 17.9599 31.9347 19.8608 33.7897C21.3077 35.1927 23.3884 35.7796 25.966 35.4183C29.6293 34.9204 31.3028 32.8856 31.3028 31.6193C31.3028 30.6693 30.7159 29.9458 29.8998 29.8559C29.4019 29.7642 29.0406 29.8559 28.1365 30.6702C26.871 31.8008 25.3855 32.2529 24.0651 31.8916C23.0702 31.6202 22.3018 30.9416 21.9395 29.9934C21.9395 29.9934 21.8038 29.3516 21.8038 29.4506C21.7121 28.9077 21.6681 28.32 21.9845 28.0935L22.0762 28.0476H30.1272C30.8608 28.0476 31.2579 27.9559 31.4844 27.7313C31.8915 27.1884 31.8915 25.7873 31.665 23.8414L31.6558 23.8396ZM38.9871 12.2371C38.3452 11.9657 37.6299 12.0565 36.9972 12.4177C36.4104 12.78 36.138 13.3219 36.138 14.3159V33.5357C36.138 33.5357 36.2297 34.2143 36.2737 34.2693C36.4094 34.7672 36.7717 35.1735 37.2687 35.4C37.8115 35.6714 38.4442 35.6264 38.9871 35.4C39.6656 35.0836 40.1177 34.405 40.1177 33.5458V14.2893L39.982 13.3393C39.9156 13.0917 39.7905 12.8638 39.6173 12.6748C39.4441 12.4858 39.2279 12.3413 38.9871 12.2536V12.2371ZM54.1887 31.755C51.5295 31.755 51.1132 29.4029 51.0233 27.5946L50.9775 26.5548L51.0233 25.7405C51.204 22.665 51.8376 21.4445 53.4652 21.0823C54.5509 20.8108 55.4092 20.9465 55.9979 21.4445C56.9479 22.2129 57.355 23.7965 57.3092 26.4649C57.3092 29.6762 56.7663 31.7559 54.1887 31.7559V31.755ZM54.3694 17.6445C52.606 17.2823 51.0682 17.5987 49.5754 18.5945L49.3489 18.7751L49.2132 18.821L48.8061 19.0016L48.6704 18.5496L48.5346 18.2781V18.2323L48.4429 18.0966C48.0358 17.4547 46.8602 17.1466 45.8754 17.7344C45.3775 18.0058 45.0611 18.4129 45.0611 19.6325V38.492C45.0611 39.5319 45.3775 40.1655 46.101 40.5277C46.6878 40.844 47.3664 40.8441 47.9551 40.6194C48.453 40.3929 48.8143 40.0325 48.95 39.5795L49.0857 38.7653V35.51L49.0399 34.9671V34.7406L49.2205 34.0988L49.8074 34.5059C49.8783 34.5717 49.954 34.6321 50.0339 34.6865L50.2145 34.8223L50.441 34.958L50.6217 35.0497C52.2044 35.8181 54.3299 35.7282 56.0043 34.8232C58.1299 33.6925 59.2156 31.7027 59.4412 28.4007C60.028 21.6169 58.4912 18.4515 54.3758 17.6372" fill="white"/>
</svg>
